<?xml version="1.0" encoding="UTF-8" standalone="no"?>
<!-- Created with Inkscape (http://www.inkscape.org/) -->

<svg
   xmlns:dc="http://purl.org/dc/elements/1.1/"
   xmlns:cc="http://creativecommons.org/ns#"
   xmlns:rdf="http://www.w3.org/1999/02/22-rdf-syntax-ns#"
   xmlns:svg="http://www.w3.org/2000/svg"
   xmlns="http://www.w3.org/2000/svg"
   xmlns:sodipodi="http://sodipodi.sourceforge.net/DTD/sodipodi-0.dtd"
   xmlns:inkscape="http://www.inkscape.org/namespaces/inkscape"
   id="svg2"
   version="1.1"
   inkscape:version="0.91 r13725"
   xml:space="preserve"
   width="700"
   height="363"
   viewBox="0 0 700 363"
   sodipodi:docname="Logo CentraleSupélec.svg"><metadata
     id="metadata8"><rdf:RDF><cc:Work
         rdf:about=""><dc:format>image/svg+xml</dc:format><dc:type
           rdf:resource="http://purl.org/dc/dcmitype/StillImage" /><dc:title></dc:title></cc:Work></rdf:RDF></metadata><defs
     id="defs6" /><sodipodi:namedview
     pagecolor="#ffffff"
     bordercolor="#666666"
     borderopacity="1"
     objecttolerance="10"
     gridtolerance="10"
     guidetolerance="10"
     inkscape:pageopacity="0"
     inkscape:pageshadow="2"
     inkscape:window-width="1440"
     inkscape:window-height="788"
     id="namedview4"
     showgrid="false"
     inkscape:zoom="0.42950034"
     inkscape:cx="60.601981"
     inkscape:cy="304.26858"
     inkscape:window-x="0"
     inkscape:window-y="1"
     inkscape:window-maximized="1"
     inkscape:current-layer="g10" /><g
     id="g10"
     inkscape:groupmode="layer"
     inkscape:label="Logo CentraleSupélec"
     transform="matrix(1.25,0,0,-1.25,0,362.99999)"><g
       id="g5820"><g
         id="g5798"><path
           d="m 325.9134,166.64729 c -4.28997,9.0955 -15.56224,12.7055 -25.19248,8.0495 -9.62284,-4.6413 -16.59774,-17.0557 -12.30038,-26.1512 4.28258,-9.0961 18.20279,-11.4275 27.81823,-6.7788 9.62285,4.6486 13.9498,15.7771 9.67463,24.8805"
           style="fill:#b00739;fill-opacity:1;fill-rule:nonzero;stroke:none"
           id="path224"
           inkscape:connector-curvature="0" /><path
           d="m 367.82196,186.78999 c -11.30186,23.9164 -34.89668,37.9374 -59.47525,37.9153 -9.51189,0 -19.2161,-2.1001 -28.31379,-6.4872 -9.0977,-4.3877 -16.80485,-10.6504 -22.78122,-18.1097 l 22.88477,-18.7442 c 3.29144,4.0955 7.48526,7.5259 12.58144,9.9847 5.09619,2.4519 10.38469,3.5878 15.62141,3.5878 13.61695,0 26.66437,-7.7129 32.89222,-20.9568 2.42605,-5.1495 3.55032,-10.486 3.55772,-15.7999 -0.0148,-13.7521 -7.63319,-26.9289 -20.73978,-33.229 -5.00003,-2.3991 -10.17019,-3.5429 -15.31075,-3.5952 l 0,-29.768598 c 9.40094,0.057 18.98681,2.1603 27.98835,6.4951 23.66879,11.420098 37.53723,35.269498 37.51503,60.105098 0.007,9.6038 -2.07101,19.4025 -6.42015,28.6026"
           style="fill:#b00739;fill-opacity:1;fill-rule:nonzero;stroke:none"
           id="path230"
           inkscape:connector-curvature="0" /></g><g
         id="g5794"><path
           d="m 249.61968,233.60276 c -4.45971,9.45537 -18.93068,11.87964 -28.93426,7.04711 -9.99588,-4.82493 -14.50172,-16.40964 -10.04203,-25.86501 4.45972,-9.45599 16.17797,-13.20051 26.18154,-8.37557 10.01128,4.83252 17.24676,17.72989 12.79475,27.19347"
           style="fill:#8c7a99;fill-opacity:1;fill-rule:nonzero;stroke:none"
           id="path236"
           inkscape:connector-curvature="0" /><path
           d="m 257.27907,200.12309 c -3.29144,-4.1028 -7.50005,-7.5338 -12.58144,-9.9926 -5.09619,-2.4587 -10.38469,-3.5952 -15.6436,-3.5952 -13.60216,0 -26.64219,7.7209 -32.87744,20.9574 -2.42605,5.1495 -3.55032,10.4929 -3.55771,15.7998 0.0222,13.759 7.64058,26.9358 20.73978,33.2285 5.00743,2.4145 10.19238,3.5503 15.35513,3.5953 l -0.007,29.7685 c -9.42314,-0.057 -19.0164,-2.1449 -28.01793,-6.4872 -23.6762,-11.4201 -37.55203,-35.2768 -37.53723,-60.1051 0,-9.6117 2.09321,-19.4098 6.42756,-28.6105 11.30184,-23.8937 34.87448,-37.9073 59.43825,-37.9073 l 0.037,0 c 9.51929,0 19.20871,2.0927 28.32859,6.4946 9.0829,4.3798 16.79745,10.6504 22.78121,18.1017 l -22.88476,18.7521 z"
           style="fill:#8c7a99;fill-opacity:1;fill-rule:nonzero;stroke:none"
           id="path242"
           inkscape:connector-curvature="0" /></g><g
         id="g5802"><path
           d="m 57.81917,33.043692 c 0,4.9705 0.961545,12.1524 7.522237,12.1524 6.701227,0 7.655376,-7.1819 7.655376,-12.1524 l -15.177613,0 z m 7.655375,14.5071 c -8.46899,0 -15.037078,-7.8777 -15.037078,-17.0631 0,-9.1853 6.568088,-17.063 15.037078,-17.063 7.315137,0 11.079954,3.0346 14.149502,7.6009 l -1.634626,1.1063 c -2.596171,-3.5276 -5.680511,-6.3605 -10.251547,-6.3605 -5.880215,0 -9.918704,5.3889 -9.918704,14.9256 l 22.145115,0 c 0,11.1881 -6.494126,16.8538 -14.48974,16.8538"
           style="fill:#000000;fill-opacity:1;fill-rule:nonzero;stroke:none"
           id="path248"
           inkscape:connector-curvature="0" /><path
           d="m 109.90531,47.550792 c -4.71896,0 -7.99561,-2.623 -10.458643,-6.9056 l -0.14054,0 0,6.4872 -10.732318,-0.4093 0,-2.3468 c 3.624288,0 4.852108,-0.6879 4.852108,-2.8999 l -0.037,-27.22 6.46454,0 0.007,18.8567 c 0,5.2541 3.284043,11.6668 8.328453,11.6668 2.52961,0 5.48081,-1.4428 5.48081,-7.4519 l 0,-23.0716 6.42756,0 -0.007,20.6503 c 0,10.0898 -5.33288,12.6458 -10.18498,12.6458"
           style="fill:#000000;fill-opacity:1;fill-rule:nonzero;stroke:none"
           id="path254"
           inkscape:connector-curvature="0" /><path
           d="m 151.52467,23.230792 c 0,-5.5304 -2.3225,-7.4588 -4.99264,-7.4588 -1.97486,0 -3.75742,0.6873 -3.75742,3.6021 l 0,25.0005 9.50451,0 0,2.3468 -9.50451,0 0,10.7697 -2.45563,0 c -1.78256,-8.4229 -2.59618,-10.224 -8.96456,-10.7697 l 0,-2.3468 5.00003,0 0,-22.519 c 0,-6.8386 3.69085,-8.4304 8.48379,-8.4304 6.76039,0 8.60952,3.8715 8.60952,10.0898 l 0,1.1655 -1.92309,0 0,-1.4497 z"
           style="fill:#000000;fill-opacity:1;fill-rule:nonzero;stroke:none"
           id="path260"
           inkscape:connector-curvature="0" /><path
           d="m 181.05297,47.550792 c -5.67311,0 -7.92904,-4.2899 -9.36397,-9.8135 l -0.13314,0 0,9.3951 -10.87285,-0.4093 0,-2.3468 c 3.69085,0 4.91867,-0.6879 4.91867,-2.8999 l 0,-27.22 6.41276,0 c 0,0 0.0148,3.5946 0.0148,9.3274 0,13.1239 3.41719,21.6146 7.99562,21.6146 0.41421,0 0.6139,-0.068 0.88758,-0.1365 -0.95415,-0.6202 -1.42753,-1.5918 -1.42753,-2.6981 0,-1.9284 1.15385,-3.2433 3.34322,-3.2433 2.1154,0 3.63168,1.7936 3.63168,3.6617 0,2.0705 -1.64202,4.7686 -5.40684,4.7686"
           style="fill:#000000;fill-opacity:1;fill-rule:nonzero;stroke:none"
           id="path266"
           inkscape:connector-curvature="0" /><path
           d="m 213.52065,26.280192 c 0,-5.8743 -3.76482,-9.955 -8.06959,-9.955 -3.21007,0 -4.77813,2.212 -4.77813,5.3212 0,6.0091 8.06218,9.4622 12.84772,10.6355 l 0,-6.0017 z m 8.54295,-8.8493 c -1.30178,0 -2.1228,0.4207 -2.1228,3.8715 l 0,16.7118 c 0,7.3246 -4.37132,9.5366 -13.26191,9.5366 -6.22046,0 -11.61251,-3.5275 -11.61251,-7.735 0,-2.0779 1.63463,-4.0137 3.95713,-4.0137 2.3225,0 3.96452,1.9358 3.96452,4.0137 0,1.9278 -1.08728,3.3104 -2.93641,3.6543 2.05623,1.3081 4.03849,1.7266 6.42756,1.7266 2.60357,0 7.04147,-0.8221 7.04147,-4.2826 l 0,-6.4201 c -5.81365,-2.0028 -20.23682,-5.187 -20.23682,-13.1239 0,-5.3815 4.78553,-7.9449 9.63764,-7.9449 5.0592,0 9.09029,1.5174 11.00599,6.6294 l 0.14053,0 c 0.54736,-3.5953 1.50149,-6.2036 5.53258,-6.2036 4.8595,0 7.03408,3.9239 7.03408,8.423 l -1.90091,0 c 0,-1.6589 -0.48078,-4.8431 -2.67013,-4.8431"
           style="fill:#000000;fill-opacity:1;fill-rule:nonzero;stroke:none"
           id="path272"
           inkscape:connector-curvature="0" /><path
           d="m 263.44035,33.043692 c 0,4.9705 0.96155,12.1524 7.52224,12.1524 6.70123,0 7.66277,-7.1819 7.66277,-12.1524 l -15.18501,0 z m 7.65538,14.5071 c -8.46899,0 -15.02968,-7.8777 -15.02968,-17.0631 0,-9.1853 6.56069,-17.063 15.02968,-17.063 7.31514,0 11.07256,3.0346 14.1495,7.6009 l -1.63463,1.1063 c -2.59617,-3.5276 -5.67311,-6.3605 -10.25154,-6.3605 -5.88022,0 -9.91871,5.3889 -9.91871,14.9256 l 22.15252,0 c 0,11.1881 -6.49413,16.8538 -14.49714,16.8538"
           style="fill:#000000;fill-opacity:1;fill-rule:nonzero;stroke:none"
           id="path278"
           inkscape:connector-curvature="0" /><path
           d="m 359.833,46.721392 0,-2.3468 c 4.10506,0 5.33288,-0.6879 5.33288,-2.8999 l 0,-15.4707 c -0.61391,-4.5668 -3.07695,-9.821 -8.6835,-9.821 -3.61688,0 -5.12577,2.7652 -5.12577,6.6368 l 0,23.9016 -11.27966,0 0,-2.3468 c 3.62429,0 4.8521,-0.6879 4.8521,-2.8999 l 0,-15.6129 c 0,-8.1614 4.0311,-12.4366 10.18498,-12.4366 4.71897,0 7.99562,2.6305 10.45865,6.9056 l 0.14054,0 0,-6.046 5.88021,0 -0.007,32.4366 -11.75303,0 z"
           style="fill:#000000;fill-opacity:1;fill-rule:nonzero;stroke:none"
           id="path284"
           inkscape:connector-curvature="0" /><path
           d="m 303.02272,51.863492 c 0,5.5304 3.89795,8.3633 9.09769,8.3633 7.92905,0 11.8196,-7.668 13.60216,-14.5071 l 1.90829,0 0,16.0244 -2.3225,0 c -0.2071,-0.6879 -1.09468,-3.1762 -2.108,-3.1762 -1.64942,0 -4.92606,4.0057 -11.14652,4.0057 -7.32253,0 -14.63767,-4.8357 -14.63767,-13.124 0,-18.3712 27.34486,-9.1859 27.34486,-24.7236 0,-5.5981 -5.00004,-9.0364 -11.01339,-9.0364 -9.34918,0 -13.58737,5.3667 -15.11105,12.7208 l -2.04883,0 c 1.4867,-8.9312 6.89354,-15.0153 17.46314,-15.0153 9.05331,0.057 16.31667,5.8374 16.31667,15.4042 0,16.988 -27.34485,9.8726 -27.34485,23.0642"
           style="fill:#000000;fill-opacity:1;fill-rule:nonzero;stroke:none"
           id="path290"
           inkscape:connector-curvature="0" /><path
           d="m 402.00192,15.771992 c -2.25593,0 -7.79591,2.145 -7.79591,12.6458 l 0,1.8613 c 0,8.7066 3.15091,14.9176 8.34325,14.9176 5.88022,0 8.34325,-6.211 8.34325,-14.9176 0,-10.2245 -2.46303,-14.5071 -8.89059,-14.5071 m 1.43492,31.7788 c -5.46601,0 -7.92905,-3.3183 -9.63024,-7.1898 l -0.14053,0 0,6.3604 -11.07996,-0.4207 0,-2.3468 c 3.96452,0 5.19974,-0.6953 5.19974,-2.8999 l 0,-41.0539998124999 6.43495,0 L 394.206,19.020992 l 0.14054,0 c 2.04883,-3.9386 4.30476,-5.598 9.15686,-5.598 8.20272,0 14.35661,8.2887 14.35661,17.4144 0,8.6248 -6.42756,16.7112 -14.42318,16.7112"
           style="fill:#000000;fill-opacity:1;fill-rule:nonzero;stroke:none"
           id="path296"
           inkscape:connector-curvature="0" /><path
           d="m 452.23894,58.186392 c 1.22782,0.7624 2.04143,1.8613 2.04143,2.8249 0,1.3229 -0.68048,2.2871 -2.3151,2.2871 -1.30179,0 -2.1228,-0.6947 -2.94381,-1.5918 l -10.04445,-10.2843 2.73671,0 10.52522,6.7641 z"
           style="fill:#000000;fill-opacity:1;fill-rule:nonzero;stroke:none"
           id="path302"
           inkscape:connector-curvature="0" /><path
           d="m 435.90007,33.043692 c 0,4.9705 0.96154,12.1524 7.52224,12.1524 6.70122,0 7.65537,-7.1819 7.65537,-12.1524 l -15.17761,0 z m 7.65538,14.5071 c -8.47639,0 -15.03708,-7.8777 -15.03708,-17.0631 0,-9.1853 6.56069,-17.063 15.03708,-17.063 7.30774,0 11.07255,3.0346 14.1495,7.6009 l -1.63463,1.1063 c -2.60357,-3.5276 -5.67311,-6.3605 -10.25894,-6.3605 -5.87282,0 -9.91131,5.3889 -9.91131,14.9256 l 22.14511,0 c 0,11.1881 -6.48672,16.8538 -14.48973,16.8538"
           style="fill:#000000;fill-opacity:1;fill-rule:nonzero;stroke:none"
           id="path308"
           inkscape:connector-curvature="0" /><path
           d="m 466.9306,56.534292 c 3.96452,0 5.19234,-0.6873 5.19234,-2.9073 l -0.0222,-39.3723 6.44235,0 0.007,45.0448 -11.6199,-0.4207 0,-2.3467 z"
           style="fill:#000000;fill-opacity:1;fill-rule:nonzero;stroke:none"
           id="path314"
           inkscape:connector-curvature="0" /><path
           d="m 558.29142,22.161992 c -2.39647,-3.6026 -5.47339,-6.3604 -10.39209,-6.3604 -7.31511,0 -10.45865,6.8385 -10.45865,15.4786 0,8.7522 4.19385,13.9238 9.82995,13.9238 7.58879,0 3.81659,-8.3558 8.61693,-8.3558 1.98226,0 3.68345,1.4423 3.68345,3.4457 0,4.6185 -6.41278,7.2871 -11.67168,7.2871 -9.15684,0 -17.84034,-7.1899 -17.84034,-17.0631 0,-9.8732 7.18197,-17.0631 16.54597,-17.0631 6.35361,0 10.59181,3.0421 13.39504,7.8851 l -1.70858,0.8221 z"
           style="fill:#000000;fill-opacity:1;fill-rule:nonzero;stroke:none"
           id="path320"
           inkscape:connector-curvature="0" /><path
           d="m 232.28704,56.534292 c 3.96452,0 5.19234,-0.6873 5.19234,-2.9073 l 0.0222,-39.3723 6.39058,0 0.0148,45.0448 -11.6199,-0.4207 0,-2.3467 z"
           style="fill:#000000;fill-opacity:1;fill-rule:nonzero;stroke:none"
           id="path326"
           inkscape:connector-curvature="0" /><path
           d="m 497.75107,33.043692 c 0,4.9705 0.96155,12.1524 7.52224,12.1524 6.69383,0 7.6554,-7.1819 7.6554,-12.1524 l -15.17764,0 z m 7.65538,14.5071 c -8.47639,0 -15.03708,-7.8777 -15.03708,-17.0631 0,-9.1853 6.56069,-17.063 15.03708,-17.063 7.31515,0 11.07257,3.0346 14.14948,7.6009 l -1.63462,1.1063 c -2.60358,-3.5276 -5.68049,-6.3605 -10.25894,-6.3605 -5.88021,0 -9.9113,5.3889 -9.9113,14.9256 l 22.14511,0 c 0,11.1881 -6.49414,16.8538 -14.48973,16.8538"
           style="fill:#000000;fill-opacity:1;fill-rule:nonzero;stroke:none"
           id="path332"
           inkscape:connector-curvature="0" /><path
           d="m 22.078549,15.771992 c -5.946787,0 -14.149501,5.6652 -14.149501,22.2422 0,14.9852 4.511865,22.2427 14.349205,22.2427 8.757455,0 11.967537,-7.5264 14.090332,-15.1944 l 1.849122,0 0,16.3001 -1.649418,0 c -0.406822,-1.2478 -1.56806,-2.6304 -2.803272,-2.6304 -1.161249,0 -6.079925,3.8715 -12.159844,3.8715 C 9.164265,62.603692 0,50.802092 0,38.014192 c 0,-12.7726 9.164265,-24.589 20.850728,-24.589 11.353626,0 16.834433,5.8369 18.380304,15.0154 l -2.056229,0 c -1.531078,-7.3173 -5.769271,-12.6686 -15.096254,-12.6686"
           style="fill:#000000;fill-opacity:1;fill-rule:nonzero;stroke:none"
           id="path338"
           inkscape:connector-curvature="0" /></g></g></g></svg>