<?xml version="1.0" standalone="no"?>
<!DOCTYPE svg PUBLIC "-//W3C//DTD SVG 20010904//EN"
 "http://www.w3.org/TR/2001/REC-SVG-20010904/DTD/svg10.dtd">
<svg version="1.0" xmlns="http://www.w3.org/2000/svg"
 width="132.000000pt" height="124.000000pt" viewBox="0 0 132.000000 124.000000"
 preserveAspectRatio="xMidYMid meet">

<g transform="translate(0.000000,124.000000) scale(0.100000,-0.100000)"
fill="#000000" stroke="none">
<path d="M431 1202 c-70 -35 -97 -110 -65 -177 23 -50 66 -75 128 -75 43 0 53
4 87 39 35 34 39 44 39 87 0 61 -28 110 -75 130 -45 18 -73 18 -114 -4z"/>
<path d="M0 455 l0 -455 315 0 315 0 0 115 0 115 -177 2 -178 3 -3 338 -2 337
-135 0 -135 0 0 -455z"/>
<path d="M360 615 l0 -295 135 0 135 0 0 295 0 295 -135 0 -135 0 0 -295z"/>
<path d="M710 461 l0 -451 130 0 129 0 3 126 3 127 54 4 c158 13 244 85 277
230 14 64 15 84 4 132 -29 131 -79 198 -189 250 -53 24 -66 26 -233 29 l-178
4 0 -451z m361 276 c20 -12 23 -19 34 -74 l7 -33 -56 0 c-53 0 -56 1 -56 25 0
14 -4 25 -10 25 -5 0 -10 -15 -10 -34 0 -34 1 -35 35 -29 69 11 104 -41 90
-133 -5 -36 -13 -49 -38 -65 -46 -29 -122 -21 -154 15 -21 25 -23 36 -23 144
0 132 9 155 63 171 36 11 90 5 118 -12z"/>
<path d="M987 543 c-11 -10 -8 -61 3 -68 6 -4 10 10 10 34 0 42 -2 46 -13 34z"/>
</g>
</svg>
